<?xml version="1.0"?>
<svg xmlns="http://www.w3.org/2000/svg" xmlns:xlink="http://www.w3.org/1999/xlink" version="1.1" viewBox="0 0 210 210" width="50px" height="50px"><g fill="none" fill-rule="nonzero" stroke="none" stroke-width="1" stroke-linecap="butt" stroke-linejoin="miter" stroke-miterlimit="10" stroke-dasharray="" stroke-dashoffset="0" font-family="none" font-weight="none" font-size="none" text-anchor="none" style="mix-blend-mode: normal"><path d="M0,210v-210h210v210z" fill="none"/><g fill="#cccccc"><path d="M172.2,16.8h-134.4c-11.592,0 -21,9.408 -21,21v134.4c0,11.592 9.408,21 21,21h134.4c11.592,0 21,-9.408 21,-21v-134.4c0,-11.592 -9.408,-21 -21,-21zM158.424,138.6l-15.666,-0.042c0,0 -0.336,0.042 -0.882,0.042c-1.26,0 -3.864,-0.336 -6.93,-2.436c-5.502,-3.822 -10.752,-13.314 -14.91,-13.314c-0.294,0 -0.546,0.042 -0.798,0.126c-3.612,1.134 -4.704,4.746 -4.704,9.156c0,1.554 -1.092,2.268 -4.032,2.268h-8.106c-9.072,0 -17.85,-0.21 -27.72,-11.004c-14.532,-15.918 -28.14,-44.226 -28.14,-44.226c0,0 -0.756,-1.638 0.042,-2.604c0.756,-0.882 2.52,-0.966 3.192,-0.966c0.168,0 0.252,0 0.252,0h16.8c0,0 1.554,0.294 2.688,1.134c0.966,0.714 1.47,2.016 1.47,2.016c0,0 2.856,5.544 6.426,11.802c6.006,10.332 9.24,13.776 11.55,13.776c0.378,0 0.756,-0.084 1.134,-0.294c3.444,-1.89 2.436,-17.178 2.436,-17.178c0,0 0.042,-5.544 -1.764,-7.98c-1.386,-1.932 -4.032,-2.478 -5.208,-2.646c-0.924,-0.126 0.588,-2.31 2.604,-3.318c2.604,-1.26 6.93,-1.512 12.138,-1.512h2.52c4.914,0.084 5.04,0.588 6.972,1.05c5.796,1.386 3.822,6.804 3.822,19.782c0,4.158 -0.756,9.996 2.226,11.97c0.21,0.126 0.504,0.21 0.882,0.21c1.932,0 6.09,-2.478 12.726,-13.692c3.696,-6.384 6.552,-12.726 6.552,-12.726c0,0 0.63,-1.134 1.596,-1.722c0.924,-0.546 0.924,-0.546 2.142,-0.546h0.126c1.344,0 14.7,-0.126 17.64,-0.126h0.336c2.814,0 5.376,0.042 5.838,1.764c0.672,2.604 -2.058,7.266 -9.24,16.926c-11.844,15.834 -13.188,14.658 -3.36,23.814c9.408,8.736 11.34,12.978 11.676,13.524c3.906,6.468 -4.326,6.972 -4.326,6.972z"/></g></g></svg>
